<svg width="67" height="67" fill="none" xmlns="http://www.w3.org/2000/svg"><path d="M65.364 1.571a2.312 2.312 0 00-2.373-.563L18.117 15.861c-1.223.404-.597 2.295.626 1.89L63.617 2.9c.312-.032.452.107.42.42L45 60.83a.526.526 0 01-.973.059L36.34 44.536l3.647-5.886c.678-1.094-1.015-2.144-1.694-1.049l-3.609 5.826-9.004-.762 24.908-24.909-9.532 15.385c-.678 1.095 1.016 2.144 1.694 1.05l14.058-22.693c.542-.873-.5-1.912-1.373-1.37L22.451 30.647 6.039 22.91a.526.526 0 01.059-.973l7.657-2.535c1.223-.404.597-2.295-.625-1.89l-7.658 2.534c-2.114.7-2.297 3.717-.282 4.666l16.38 7.722.896 11.122c.039.482.43.87.91.913l11.176.946 7.672 16.322c.943 2.006 3.968 1.833 4.667-.28L65.927 3.945a2.312 2.312 0 00-.563-2.374zM24.28 41.248l-.636-7.892-.085-1.052L49.13 16.397l-24.85 24.85zm-4.774 5.64a.996.996 0 00-1.408.023L.284 65.308c-.894.923.532 2.314 1.43 1.386L19.53 48.297a.996.996 0 00-.023-1.409z" fill="#685ED6"/><path d="M25.902 46.915l-14.08 14.663c-.89.926.541 2.312 1.437 1.38l14.08-14.663c.892-.929-.545-2.309-1.437-1.38zM4.32 55.383a.994.994 0 00.718-.306l14.08-14.663c.892-.929-.545-2.309-1.437-1.38L3.6 53.697c-.574.597-.106 1.686.718 1.686z" fill="#685ED6"/></svg>