<svg width="68" height="68" fill="none" xmlns="http://www.w3.org/2000/svg"><path d="M15.758 28.65l-.108-.217 1.853-.927.108.218a2.302 2.302 0 002.072 1.28c.884 0 1.677-.49 2.072-1.28l.109-.218 1.853.927-.109.218a4.364 4.364 0 01-3.925 2.425 4.362 4.362 0 01-3.925-2.425zM.002 52.83v-.906c0-3.04.835-5.985 2.401-8.572L.413 39.87a3.083 3.083 0 01-.301-2.36c.219-.8.736-1.469 1.457-1.88a3.102 3.102 0 014.24 1.16l1 1.75a16.577 16.577 0 013.495-1.95 9.705 9.705 0 01-4.88-5.573 5.189 5.189 0 01-4.386-5.119v-.678c0-.3.026-.6.078-.89l1.773-10.203A17.015 17.015 0 0119.683 0c8.308 0 15.37 5.94 16.794 14.125l1.775 10.205c.05.288.076.587.076.888v.678a5.187 5.187 0 01-4.385 5.118 9.7 9.7 0 01-4.882 5.573c6.11 2.515 10.303 8.563 10.303 15.336v.905c0 3.998-3.253 7.251-7.25 7.251h-3.108v4.143H10.36V60.08H7.253c-3.998 0-7.25-3.252-7.25-7.25zm11.394 5.178h5.18v-3.714l-1.036-1.036c-.554-.553-1.518-.554-2.072 0l-.607.607h-1.465c-.571 0-1.035.465-1.035 1.036v2.071c0 .571.464 1.036 1.035 1.036zM7.917 44.653L6.19 45.805l3.423 5.988h.749V48.93l-2.444-4.276zm6.587-1.146h-2.072v7.94c1.364-.967 3.367-.858 4.572.345l.414.415a2.056 2.056 0 011.23-.414h8.286v-8.286h-2.072a2.073 2.073 0 01-2.071 2.071h-6.215a2.074 2.074 0 01-2.072-2.072zm8.287-21.753a3.111 3.111 0 003.107 3.107 3.111 3.111 0 003.108-3.107 3.111 3.111 0 00-3.108-3.108 3.111 3.111 0 00-3.107 3.108zm-.283-3.884a11.368 11.368 0 01-4.655-3.324l-1.216-1.458a1.816 1.816 0 00-1.4-.657c-.697 0-1.322.387-1.633 1.01l-.436.873-1.56.52a1.823 1.823 0 00-1.247 1.731v1.072a5.126 5.126 0 013.107-1.062 5.19 5.19 0 015.075 4.143h2.28c.23-1.132.846-2.114 1.685-2.848zm-9.04.776a3.111 3.111 0 00-3.107 3.108 3.111 3.111 0 003.107 3.107 3.111 3.111 0 003.108-3.107 3.111 3.111 0 00-3.108-3.108zm-3.107 7.372c0 2.58 1.643 4.86 4.09 5.675a3.104 3.104 0 012.125 2.948v1.488l.25 1.003a2.94 2.94 0 002.857 2.231 2.941 2.941 0 002.857-2.23l.25-1.003v-1.488c0-1.34.854-2.525 2.125-2.948a5.973 5.973 0 004.09-5.675v-.148a5.125 5.125 0 01-3.107 1.063 5.189 5.189 0 01-5.074-4.143h-2.281a5.188 5.188 0 01-5.075 4.143c-1.17 0-2.24-.405-3.107-1.063v.147zm6.215 15.417v2.072h6.216l-.001-2.072h-6.215zM26.934 60.08H12.432v2.072h14.502V60.08zm-1.106-22.336l-1.24-.266-.04.157a4.987 4.987 0 01-.948 1.893 2.074 2.074 0 011.262 1.907h4.144v10.358h3.748l1.321 2.645-1.853.927-.749-1.5H18.647v4.143h13.466a5.185 5.185 0 005.18-5.179v-.905c0-6.792-4.822-12.756-11.465-14.18zm-14.242-2.83l1.756.753 1.161-.248v-.777c0-.447-.284-.842-.709-.983a8.042 8.042 0 01-5.506-7.64v-9.455a3.892 3.892 0 012.663-3.696l.745-.247.054-.107a3.877 3.877 0 013.485-2.154c1.16 0 2.251.51 2.994 1.402l1.216 1.459a9.287 9.287 0 004.375 2.92 4.694 4.694 0 01-.49-1.426c-.227-1.359-1.318-2.284-2.61-2.284V10.36a4.689 4.689 0 014.639 3.93c.226 1.36 1.318 2.285 2.611 2.285h3.107v9.443a8.042 8.042 0 01-5.506 7.64c-.424.14-.709.536-.709.983v.777l1.162.248 1.754-.753a7.615 7.615 0 004.366-5.125l.195-.783h.81a3.111 3.111 0 003.107-3.108v-.678c0-.177-.016-.355-.046-.53L34.435 14.48A14.944 14.944 0 0019.683 2.073 14.948 14.948 0 004.93 14.48L3.155 24.686a3.091 3.091 0 00-.046.533v.678a3.111 3.111 0 003.107 3.108h.81l.194.784a7.618 7.618 0 004.366 5.125zm-3.73 5.456l2.505 4.383v-3.318h4.143c0-.856.521-1.591 1.263-1.907a4.987 4.987 0 01-.95-1.893l-.039-.157-1.24.266c-2.066.443-4.003 1.36-5.682 2.626zM2.21 38.84l2.95 5.163 1.727-1.152-2.877-5.036c-.274-.48-.939-.66-1.412-.388a1.033 1.033 0 00-.388 1.413zm-.136 13.99a5.185 5.185 0 005.18 5.178H8.48a3.072 3.072 0 01-.191-1.036v-2.071c0-.365.075-.71.19-1.036H6.858l-.75 1.499-1.853-.927 1.323-2.644h1.65l-3.622-6.337a14.44 14.44 0 00-1.531 6.468v.905zm58.531-29.432l-4.852 3.905a3.024 3.024 0 01-1.887.666 3.016 3.016 0 01-1.887-.666l-4.852-3.906a9.672 9.672 0 01-3.62-7.574c0-.862.114-1.72.34-2.552l2.295-8.465.757-.03a17.268 17.268 0 006.534-1.573l.433-.199.433.199a17.278 17.278 0 006.534 1.572l.757.031 2.295 8.464c.226.833.34 1.69.34 2.552a9.676 9.676 0 01-3.62 7.576zm1.548-7.575c0-.679-.09-1.355-.267-2.01L59.983 6.8a19.267 19.267 0 01-5.082-1.122V17.61H52.83V5.677a19.319 19.319 0 01-5.082 1.122l-1.901 7.015a7.698 7.698 0 00-.268 2.009 7.613 7.613 0 002.847 5.96l4.404 3.545v-5.646h2.072v5.646l4.404-3.544a7.614 7.614 0 002.847-5.961zm-2.804 13.484l-9.626 9.627-1.34-1.339-1.464 1.465 2.804 2.804 11.09-11.092-1.464-1.465zm0 7.251l-9.626 9.627-1.34-1.34-1.464 1.466 2.804 2.804 11.09-11.092-1.464-1.465zM48.383 52.097l-1.464 1.465 2.804 2.803 11.09-11.091-1.464-1.465-9.626 9.627-1.34-1.34z" fill="#685ED6"/></svg>