<svg width="68" height="68" fill="none" xmlns="http://www.w3.org/2000/svg"><path d="M9.1 53.556c0-1.654-1.368-3-3.05-3-1.682 0-3.05 1.346-3.05 3s1.368 3 3.05 3c1.682 0 3.05-1.346 3.05-3zm-4.067 0c0-.552.456-1 1.017-1 .561 0 1.017.448 1.017 1s-.456 1-1.017 1a1.009 1.009 0 01-1.017-1zM3 39.001c0 1.654 1.368 3 3.05 3 1.682 0 3.05-1.346 3.05-3s-1.368-3-3.05-3C4.368 36 3 37.347 3 39zm3.05-1c.561 0 1.017.448 1.017 1s-.456 1-1.017 1a1.009 1.009 0 01-1.017-1c0-.552.456-1 1.017-1zm25.417 9c0 .552.455 1 1.016 1h2.034c1.681 0 3.05 1.346 3.05 3s-1.369 3-3.05 3v2h-2.034v-2c-1.681 0-3.05-1.346-3.05-3h2.034c0 .552.455 1 1.016 1h2.034c.56 0 1.016-.448 1.016-1s-.455-1-1.016-1h-2.034c-1.681 0-3.05-1.346-3.05-3s1.369-3 3.05-3v-2h2.034v2c1.681 0 3.05 1.346 3.05 3h-2.034c0-.552-.455-1-1.016-1h-2.034c-.56 0-1.016.448-1.016 1zM64 53.556c0 1.654-1.368 3-3.05 3-1.682 0-3.05-1.346-3.05-3s1.368-3 3.05-3c1.682 0 3.05 1.346 3.05 3zm-2.033 0c0-.552-.456-1-1.017-1-.561 0-1.017.448-1.017 1s.456 1 1.017 1a1.01 1.01 0 001.017-1zM60.95 36.001c1.682 0 3.05 1.346 3.05 3s-1.368 3-3.05 3c-1.682 0-3.05-1.346-3.05-3s1.368-3 3.05-3zm0 2c-.561 0-1.017.448-1.017 1s.456 1 1.017 1c.561 0 1.017-.448 1.017-1s-.456-1-1.017-1zm-5.083 16.555v-2h-2.034v-5h-4.066v2H51.8v5h4.067zm0-14.555v-2H51.8v5h-2.033v2h4.066v-5h2.034zM11.133 52.556v2H15.2v-5h2.033v-2h-4.066v5h-2.034zm6.1-9.555H15.2v-5h-4.067v2h2.034v5h4.066v-2zm12.2-20v-.466l-.333-.219A5.975 5.975 0 0126.426 18h-1.06c-1.68 0-3.05-1.346-3.05-3 0-.737.283-1.405.734-1.928A6.869 6.869 0 0122.317 10c0-3.859 3.193-7 7.116-7h8.134c3.923 0 7.116 3.141 7.116 7a6.892 6.892 0 01-.732 3.073c.45.523.732 1.19.732 1.927 0 1.654-1.368 3-3.05 3h-1.059a5.973 5.973 0 01-2.674 4.316l-.333.22V23h15.25c.453 0 .868.152 1.206.4l.406-.4c1.31-1.289 3.598-1.289 4.909 0h.595c1.682 0 3.05 1.346 3.05 3v2c0 1.654-1.368 3-3.05 3H42.65v4h1.8l2.66 9.154c.414 1.42.623 2.895.623 4.378 0 4.988-2.422 9.755-6.48 12.749L38.38 63.4A8.289 8.289 0 0133.5 65a8.277 8.277 0 01-4.875-1.596l-2.877-2.123c-4.059-2.994-6.481-7.76-6.481-12.75 0-1.482.21-2.956.624-4.38L22.549 35h1.801v-4H7.067c-1.682 0-3.05-1.346-3.05-3v-2c0-1.654 1.368-3 3.05-3h.595c1.31-1.289 3.598-1.289 4.909 0l.406.4a2.04 2.04 0 011.206-.4h15.25zM12.15 29v-3.587l-1.017-1c-.544-.533-1.49-.533-2.033 0L8.504 25H7.067c-.562 0-1.017.448-1.017 1v2c0 .552.455 1 1.017 1h5.083zm30.768 7.998h-2.706a9.13 9.13 0 01-5.02-1.495l-1.692-1.11-1.693 1.11a9.124 9.124 0 01-5.023 1.495h-2.701l-2.236 7.703a13.675 13.675 0 00-.547 3.83c0 4.362 2.119 8.53 5.668 11.149l2.875 2.122c2.099 1.543 5.213 1.545 7.318-.004l2.871-2.118c3.55-2.618 5.668-6.786 5.668-11.15a13.72 13.72 0 00-.545-3.827l-2.237-7.705zm12.949-12.585l-1.017 1V29h5.083c.562 0 1.017-.448 1.017-1v-2c0-.552-.456-1-1.017-1h-1.437l-.596-.586c-.544-.533-1.49-.533-2.033 0zm-3.05.586h-15.25L33.5 28.414 29.93 25H14.183v4h12.2v6h.4c1.394 0 2.74-.401 3.896-1.16l2.821-1.852 2.82 1.852A7.068 7.068 0 0040.211 35h.406v-6h12.2v-4zM42.65 15c0-.552-.456-1-1.017-1h-1.016v2h1.016a1.01 1.01 0 001.017-1zm-17.283 1h1.016v-2h-1.016c-.562 0-1.017.448-1.017 1s.455 1 1.017 1zm3.648-6.584a3.88 3.88 0 012.94.206l1.653.813c.751.37 1.593.565 2.434.565a7.63 7.63 0 012.483.42l.946.178 1.146.402h1.016c.194 0 .38.022.564.056A4.903 4.903 0 0042.65 10c0-2.757-2.28-5-5.083-5h-8.134c-2.803 0-5.083 2.243-5.083 5 0 .714.157 1.412.452 2.056.184-.034.372-.056.565-.056h1.165a3.801 3.801 0 012.483-2.584zm1.212 11.236l.334.22c.567.371.906.993.906 1.663v1.051l2.033 2 2.033-2v-1.05c0-.67.339-1.293.906-1.665l.334-.219a3.977 3.977 0 001.81-3.328v-3.706l-.106-.053A5.546 5.546 0 0036.042 13a7.628 7.628 0 01-3.344-.776l-1.653-.813a1.83 1.83 0 00-1.385-.098 1.788 1.788 0 00-1.243 1.695v4.316c0 1.34.677 2.584 1.81 3.328z" fill="#685ED6"/></svg>