<svg width="143" height="121" fill="none" xmlns="http://www.w3.org/2000/svg"><g clip-path="url(#clip0)"><path fill-rule="evenodd" clip-rule="evenodd" d="M.627 102.102c21.324-10.499 31.986-22.835 31.986-37.009-9.089-1.05-16.604-4.768-22.547-11.155C4.123 47.551 1.15 40.158 1.15 31.76c0-8.924 2.884-16.448 8.653-22.572C15.572 3.062 22.825 0 31.564 0c9.789 0 18.266 3.98 25.432 11.943 7.167 7.961 10.75 17.629 10.75 29.003 0 34.121-19.052 60.806-57.156 80.054L.627 102.102zm75.254 0c21.5-10.499 32.249-22.835 32.249-37.009-9.264-1.05-16.867-4.768-22.81-11.155-5.943-6.387-8.914-13.78-8.914-22.179 0-8.924 2.927-16.448 8.783-22.572C91.044 3.062 98.342 0 107.08 0c9.788 0 18.222 3.98 25.301 11.943C139.461 19.904 143 29.572 143 40.946c0 34.121-18.964 60.806-56.894 80.054l-10.225-18.898z" fill="#E6DCFE"/></g><defs><clipPath id="clip0"><path fill="#fff" transform="rotate(-180 71.5 60.5)" d="M0 0h143v121H0z"/></clipPath></defs></svg>