<svg width="725" height="583" fill="none" xmlns="http://www.w3.org/2000/svg"><path d="M688.188 185.705h-79.012c-6.304 0-11.456 5.148-11.456 11.447v34.628c0 5.787 4.736 10.519 10.528 10.519h2.016l-3.808 16.051 23.905-16.051h58.499c6.304 0 11.457-5.148 11.457-11.447v-33.029c0-6.682-5.473-12.118-12.129-12.118z" fill="#88EEFB"/><path d="M690.3 214.456h-82.372a2.061 2.061 0 01-2.048-2.046c0-1.119.928-2.046 2.048-2.046H690.3c1.12 0 2.049.927 2.049 2.046a2.062 2.062 0 01-2.049 2.046zm0 9.113h-82.372a2.062 2.062 0 01-2.048-2.047c0-1.119.928-2.046 2.048-2.046H690.3c1.12 0 2.049.927 2.049 2.046a2.042 2.042 0 01-2.049 2.047zm0 9.144h-82.372a2.061 2.061 0 01-2.048-2.046c0-1.119.928-2.047 2.048-2.047H690.3c1.12 0 2.049.928 2.049 2.047a2.062 2.062 0 01-2.049 2.046zm-44.866-32.421h-34.978a2.43 2.43 0 110-4.86h34.978a2.43 2.43 0 012.432 2.43c-.032 1.343-1.12 2.43-2.432 2.43zm30.05 0h-21.057a1.925 1.925 0 01-1.921-1.919v-1.023c0-1.055.864-1.918 1.921-1.918h21.057c1.056 0 1.92.863 1.92 1.918v1.023a1.925 1.925 0 01-1.92 1.919zM278.12 395.213h109.83a6.224 6.224 0 006.24-6.234v-33.765a6.225 6.225 0 00-6.24-6.235H278.12a6.225 6.225 0 00-6.24 6.235v33.765c.032 3.421 2.816 6.234 6.24 6.234z" fill="#fff"/><path d="M453.169 23.31v404.373c0 9.976-8.096 18.034-18.081 18.034h-226.57c-9.985 0-18.081-8.09-18.081-18.034V23.309c0-9.976 8.096-18.065 18.081-18.065h226.57c10.017.032 18.081 8.09 18.081 18.065z" fill="#C0D8FB"/><path d="M249.735 328.276h110.534a5.856 5.856 0 005.856-5.851v-29.256a5.857 5.857 0 00-5.856-5.852H249.735a5.857 5.857 0 00-5.856 5.852v29.224c0 3.261 2.624 5.883 5.856 5.883z" fill="#FCE29E"/><path d="M448.593 5.276H194.34V174.61h254.253V5.276z" fill="#F0F6FF"/><path d="M353.901 27.274h-64.099c-9.504 0-17.185-7.674-17.185-17.17h98.469c-.032 9.496-7.712 17.17-17.185 17.17z" fill="#2B478B"/><path d="M435.568 450.577H208.069c-12.257 0-22.209-10.488-22.209-23.373V23.789c0-12.886 9.952-23.373 22.209-23.373h227.499c12.257 0 22.209 10.487 22.209 23.373v403.415c0 12.885-9.952 23.373-22.209 23.373zM208.069 10.104c-7.168 0-12.993 6.139-12.993 13.685v403.415c0 7.545 5.825 13.684 12.993 13.684h227.499c7.168 0 12.993-6.139 12.993-13.684V23.789c0-7.546-5.825-13.685-12.993-13.685H208.069z" fill="#2B478B"/><path d="M434.385 445.588H202.213c-6.624 0-12.032-5.371-12.032-11.99v-16.275h263.277v9.209c0 10.519-8.545 19.056-19.073 19.056z" fill="#2B478B"/><path d="M474.771 226.344c9.92-2.11 20.257.895 27.617 7.866 3.232 3.069 6.785 6.938 10.049 11.51 8.096 11.287-7.393 22.478-5.345 26.283 2.049 3.837 6.849 6.842 4.737 14.836-2.08 7.993-15.873 18.353-20.353 18.8-45.539 4.669-65.284-20.399-50.083-33.924 15.201-13.525 9.025-33.125 21.377-40.735 3.84-2.366 8.033-3.773 12.001-4.636z" fill="#233862"/><path d="M497.939 296.271s42.883 18.673 50.659 18.321c7.776-.352 55.747-14.58 55.747-14.58l-1.216 8.249s-37.026 21.263-49.955 22.478c-12.737 1.183-56.291-11.415-60.515-14.101-4.224-2.686-6.944-17.681 5.28-20.367z" fill="#FDB888"/><path d="M503.123 316.671c-3.776 2.621-8.48 4.764-14.4 6.138-22.209 5.116-30.722-13.62-33.922-26.506 3.04-1.726 5.888-2.11 7.52-2.302a66.348 66.348 0 014.705-.384c2.496-1.918 6.208-9.72 7.04-21.87l1.056.288 17.505 4.796s-.8 5.563-1.184 10.807c-.288 4.125-.352 8.058.416 9.017 1.376.288 2.176.479 2.176.479v.032c.224.352 5.312 8.697 9.088 19.505z" fill="#FFB27D"/><path d="M492.595 276.799s-.8 5.563-1.184 10.807c-9.921-.991-14.529-10.424-16.321-15.603l17.505 4.796z" fill="#ED985F"/><path d="M495.571 282.011s-23.553-1.311-22.529-15.923c1.024-14.644-1.312-24.652 13.76-24.46 15.073.224 17.601 6.011 18.433 10.967.864 4.956-3.52 29.384-9.664 29.416z" fill="#FFB27D"/><path d="M505.172 244.409c-3.329-4.668-6.145-3.9-7.777-2.685-12.352-7.994-21.377 1.854-21.377 1.854-2.336 10.392-10.336 15.859-10.336 15.859s4.16 3.325 14.176 1.119c12.769-2.845 17.153-13.908 17.761-15.603 1.344 1.407 3.072 2.27 4.417 5.308 1.568 3.581 2.56 5.659 2.592 11.542-.032 0 5.504-10.391.544-17.394z" fill="#233862"/><path d="M448.081 364.503c-2.112-10.871-9.057-54.259-2.112-68.232 2.496-5.02 12.256-5.468 22.977-5.02 3.328 2.142 16.033 10.296 21.281 9.273.064 0 .16-.032.288-.064 2.464-.608 3.392-2.335 1.344-3.837 0 0 5.312-.512 11.905.735 3.712.704 13.76 5.883 13.76 5.883s-5.056 9.145-12.512 12.278c1.28 11.351-.608 16.339-12.385 42.526-9.953 22.126 1.344 42.077 1.344 42.077s-58.563 47.034-58.883 23.085c-.256-18.033 15.713-44.827 12.993-58.704z" fill="#fff"/><path d="M496.851 451.249c3.2-.352 6.048-2.111 7.84-4.765.288-.415.576-.863.896-1.374 6.657-10.072 9.249-40.959 24.258-73.86 3.648-7.994 16.768-9.432 20.32-18.513 0 0 8.801-29.352-16.832-30.215-25.634-.864-68.644 81.629-69.348 90.294-.64 8.441-16.929 44.06 32.866 38.433z" fill="#FDCD51"/><path d="M598.744 450.577h-36.482s-1.376-5.819 1.024-9.784c2.113-3.485 1.312-5.5-.256-8.377 1.664.671 3.777 1.279 6.145 1.151 1.824-.096 3.744-.927 5.44-1.919 1.568 1.791 8.288 9.401 10.4 10.903 2.369 1.759 12.993 1.119 13.729 8.026z" fill="#233862"/><path d="M550.999 331.059c2.208 16.466 10.784 68.392 25.921 93.747 4.864 8.185-12.289 12.758-12.385 12.726-2.304-.608-6.144-4.285-7.904-5.851-12.289-11.063-37.218-42.398-37.218-67.497 0-12.246-.224-35.651 8.705-41.598 5.472-3.677 22.017 1.95 22.881 8.473z" fill="#FDCD51"/><path d="M475.09 450.577s1.344-1.886 3.712-5.435c2.816-4.253 5.921-12.598 9.665-23.309 3.968-11.255 8.64-25.068 14.528-39.488 1.825-4.445 3.745-8.953 5.793-13.429 3.648-7.994 13.696-6.907 17.281-15.955 0 0 13.952-31.367-11.681-32.262-25.633-.863-74.34 83.932-77.156 92.149-3.072 9.017-18.049 46.362 37.858 37.729z" fill="#FCE29E"/><path d="M571.959 450.577h-36.482s-1.376-5.819 1.024-9.784c2.112-3.485 1.312-5.5-.256-8.377 1.664.671 3.776 1.279 6.144 1.151 1.824-.096 3.745-.927 5.441-1.919 1.568 1.791 8.288 9.401 10.4 10.903 2.368 1.759 12.993 1.119 13.729 8.026z" fill="#2B478B"/><path d="M488.467 421.833c3.968-11.255 8.64-25.068 14.528-39.488-1.536-10.903-4.832-20.463-10.4-24.3 0 0-13.473 41.726-4.128 63.788z" fill="#FFDB7D"/><path d="M529.717 329.908c2.208 16.466 5.28 69.575 20.417 94.898 4.864 8.185-12.288 12.758-12.384 12.726-2.305-.608-6.145-4.285-7.905-5.851-12.288-11.063-37.218-42.398-37.218-67.497 0-12.246 14.401-34.66 23.297-40.607 5.473-3.677 12.897-.224 13.793 6.331z" fill="#FCE29E"/><path d="M608.696 278.813l-37.377-3.965a2.374 2.374 0 00-2.496 1.535l-13.377 35.107c-.576 1.535.512 3.198 2.144 3.262l37.09 1.503a2.48 2.48 0 002.336-1.471l13.665-32.614c.608-1.534-.385-3.197-1.985-3.357z" fill="#233862"/><path d="M611.928 279.133l-37.378-3.965a2.374 2.374 0 00-2.496 1.535l-13.376 35.107c-.576 1.535.512 3.198 2.144 3.262l37.089 1.503a2.482 2.482 0 002.337-1.471l13.664-32.614c.608-1.502-.384-3.197-1.984-3.357z" fill="#2B478B"/><path d="M591.223 295.536c.448-1.247-.192-2.27-1.44-2.27-1.249 0-2.657 1.023-3.105 2.27-.448 1.247.192 2.27 1.44 2.27 1.249 0 2.657-1.023 3.105-2.27zm19.585-13.078c.224-.607-.096-1.119-.704-1.119s-1.312.512-1.536 1.119c-.224.608.096 1.119.704 1.119.64 0 1.312-.511 1.536-1.119z" fill="#EBF3FA"/><path d="M454.801 296.271s51.779 19.056 59.555 18.673c5.024-.256 46.85-14.932 46.85-14.932l3.745 7.098s-40.674 26.123-51.875 25.995c-22.081-.256-59.363-13.813-63.555-16.467-4.192-2.654-6.944-17.681 5.28-20.367z" fill="#FFB27D"/><path d="M561.206 300.012s3.744-5.755 7.489-5.947c3.744-.16 10.176 2.558 12.384 2.973 2.208.416 8.481 2.462 6.624 5.532-1.856 3.069-10.528 3.741-14.272 3.069-3.744-.671-8.481 1.503-8.481 1.503l-3.744-7.13z" fill="#FFB27D"/><path d="M567.671 294.257s5.952-2.718 7.648-3.23c1.696-.511 1.344 0 .864 1.631-.512 1.599-3.552 3.133-3.552 3.645s-4.96-2.046-4.96-2.046zm40.418 2.686s-3.745-5.916-4.961-6.171c-3.744-.736-3.744 4.188-2.944 7.354.864 3.389 3.744 6.618 4.512 6.33.8-.255 4.257-4.38 3.393-7.513z" fill="#FFB27D"/><path d="M608.217 298.126s1.184 6.65-5.121 10.103l1.857-4.572 3.264-5.531z" fill="#FFB27D"/><path d="M499.988 273.601s-2.24-.895-8.481-.383c0 0 .32 2.43 4.961 2.685 2.592.128 3.52-2.302 3.52-2.302zm-18.529 32.07s-4.64 14.644-20.545 17.97c0 0-26.273-8.09-13.185-25.963 0 0 12.961-9.592 33.73 7.993zm-102.758 3.101c0 7.641 3.232 14.516 8.384 19.376 4.769 4.476 11.169 7.226 18.241 7.226.576 0 1.152-.032 1.696-.064a26.54 26.54 0 0017.121-7.738 22.463 22.463 0 001.664-1.822c.832-.991 1.6-2.047 2.272-3.166a26.382 26.382 0 003.872-13.812 26.39 26.39 0 00-7.808-18.801c-4.832-4.796-11.456-7.802-18.817-7.802a26.436 26.436 0 00-18.817 7.802c-4.8 4.828-7.808 11.479-7.808 18.801z" fill="#fff"/><path d="M389.869 320.826c.48.319.992.607 1.568.799 4.16 3.613 10.753 9.432 15.585 13.685a26.541 26.541 0 0017.121-7.738 22.463 22.463 0 001.664-1.822c.832-.992 1.6-2.047 2.272-3.166a21.642 21.642 0 00-2.08-3.069c-4.288-5.532-7.776-7.418-6.816-14.548.512-3.869-1.984-17.586-10.881-18.289-.736-.064-5.248-.832-8.512.095-7.905 2.143-19.009 27.786-9.921 34.053z" fill="#233862"/><path d="M399.086 319.291c-.032 0 3.713 2.271 6.657 1.663 2.784-.575 5.632-4.348 5.568-4.348-1.152-.288-2.208-1.599-1.728-8.442l-.544.064-8.929 1.183s.032 2.782-.128 5.404c-.096 2.206-.384 4.285-.896 4.476z" fill="#FFB27D"/><path d="M400.142 309.444s.032 2.781-.128 5.403c4.928.16 7.84-4.156 9.056-6.587l-8.928 1.184z" fill="#ED975D"/><path d="M398.35 311.809s11.649.928 12.129-6.33c.48-7.259 2.272-12.023-5.153-12.95-7.424-.895-9.056 1.791-9.792 4.157-.736 2.398-.224 14.676 2.816 15.123z" fill="#FFB27D"/><path d="M396.782 292.913s5.888 7.802 10.72 9.369c4.832 1.566 7.041.383 7.041.383s-2.401-3.037-3.297-7.322a3.533 3.533 0 00-2.432-2.654c-3.424-1.023-10.08-2.622-12.032.224z" fill="#233862"/><path d="M401.422 293.36s-2.944 1.823-4.064 3.39c-1.088 1.502-2.176 5.499-1.952 7.194 0 0-2.176-8.154.736-11.255 3.072-3.293 5.28.671 5.28.671z" fill="#233862"/><path d="M387.086 328.148c4.768 4.476 11.168 7.226 18.24 7.226h1.76l-.064-.064c6.657-.415 12.673-3.293 17.121-7.737a22.646 22.646 0 001.664-1.823c-.928-2.014-1.824-3.645-2.56-4.7-3.296-4.604-12.832-5.18-12.832-5.18-.032 0-.032.032-.064.032-3.617 2.142-6.017 2.814-7.585 2.814-2.304 0-2.848-1.471-2.944-1.823v-.064s-6.88 1.151-9.952 4.029c-.64.607-1.12 1.279-1.312 2.014-.256.928-.8 2.846-1.472 5.276z" fill="#FCE29E"/><path d="M144.425 273.281h218.347c6.496 0 11.776-5.275 11.776-11.766v-59.983c0-6.491-5.28-11.766-11.776-11.766H144.425c-6.496 0-11.777 5.275-11.777 11.766v59.983c0 6.491 5.281 11.766 11.777 11.766z" fill="#fff"/><path d="M259.984 225.705h-30.338v3.933h30.338v-3.933zm7.487 7.865h-37.826v3.933h37.826v-3.933zm30.85 0h-27.842v3.933h27.842v-3.933zm-40.835 7.674h-27.841v3.933h27.841v-3.933zm25.986-15.539h-20.225v3.932h20.225v-3.932zm45.25 0h-40.898v3.932h40.898v-3.932zm-55.842-19.472h-42.946v5.563h42.946v-5.563zm64.131-.001h-59.363v5.564h59.363v-5.564z" fill="#CBE1FD"/><path d="M272.937 307.781H253v2.59h19.937v-2.59zm4.928 5.18h-24.866v2.59h24.866v-2.59zm20.289 0h-18.305v2.59h18.305v-2.59zm-26.85 5.051h-18.305v2.59h18.305v-2.59zm17.09-10.231h-13.313v2.59h13.313v-2.59zm29.761 0h-26.914v2.59h26.914v-2.59zm-36.704-12.79h-28.258v3.645h28.258v-3.645zm42.144 0h-39.042v3.645h39.042v-3.645zm-22.305 75.235h-19.937v2.59h19.937v-2.59zm4.928 5.148h-24.865v2.589h24.865v-2.589zm20.289 0h-18.305v2.589h18.305v-2.589zm-26.849 5.051h-18.305v2.59h18.305v-2.59zm17.089-10.2h-13.313v2.59h13.313v-2.59zm29.761 0h-26.913v2.59h26.913v-2.59zm-36.704-12.821h-28.257v3.645h28.257v-3.645zm42.145 0h-39.042v3.645h39.042v-3.645z" fill="#fff"/><path d="M425.616 34.117l-2.624 1.886-2.624-1.854a3.185 3.185 0 012.624-1.375c1.056 0 2.016.543 2.624 1.343zm-2.624-5.916a7.82 7.82 0 00-6.368 3.294l1.664 1.15c1.056-1.47 2.752-2.43 4.704-2.43 1.921 0 3.617.96 4.673 2.399l1.664-1.183c-1.44-1.95-3.744-3.23-6.337-3.23zm0-8.665c-5.568 0-10.464 2.75-13.473 6.97l1.664 1.151a14.436 14.436 0 0111.809-6.107c4.832 0 9.12 2.398 11.745 6.043l1.632-1.183a16.36 16.36 0 00-13.377-6.874z" fill="#2B478B"/><path d="M422.992 24.269c-3.968 0-7.456 1.95-9.6 4.956l1.664 1.15a9.773 9.773 0 017.936-4.092c3.232 0 6.113 1.599 7.905 4.029l1.632-1.183a11.806 11.806 0 00-9.537-4.86z" fill="#2B478B"/><path d="M547.416 173.554l-11.546-18.197 14.613 8.941-2.529 1.929 1.286 5.107-1.824 2.22z" fill="#685ED6"/><path d="M535.87 155.357l15.628 12.427 7.96 15.491-23.588-27.918z" fill="#18E1F7"/><path d="M550.484 164.299l-14.613-8.941 18.242 3.804-3.629 5.137z" fill="#18E1F7"/><g clip-path="url(#clip0)"><path d="M412.889 158.61H230.537v17.385h182.352V158.61z" fill="#fff"/><path d="M327.281 134.611s-2.505 2.547-5.009 5.408c-1.074 1.161-2.102 2.413-2.997 3.53-2.997 3.754-5.814 4.827-9.124 8.491-2.058 2.28-4.741 4.022-9.751 4.827-5.009.804-23.347 2.1-23.347 2.1s-.447-2.413-.134-3.217c.089-.224-.135-.671-.448-1.296-.805-1.609-2.147-4.067.448-4.38 3.533-.402 20.753-4.559 21.558-5.81.805-1.251 5.457-7.016 7.961-12.245 2.505-5.229 6.262-11.62 10.109-17.876 3.354-5.497 4.338-5.765 6.127-7.374l2.102 12.781 2.505 15.061z" fill="#6D9BFF"/><path d="M268.644 158.431h-12.255v-.536c0-3.352 2.729-6.123 6.128-6.123 3.354 0 6.127 2.726 6.127 6.123v.536z" fill="#A5A5A5"/><path d="M269.047 151.46c-.984-.358-3.981-1.788-5.591-1.788-1.61 0-4.293 2.726-5.814 4.067-1.521 1.341.581 2.592 1.789 1.966 1.252-.625 2.415-2.19 3.578-2.145 1.163.045 1.7 1.073 2.326 1.296.313.089.492.983-.09 1.386-.626.446-2.012.446-2.37.67-.76.491-.268 1.788 1.029 1.788s2.37.134 3.936-.179c1.52-.313 3.444.134 4.606-.358 1.208-.491 4.563.715 4.563.715l-2.416-6.569c0 .089-3.623-.09-5.546-.849z" fill="#FDD2BB"/><path d="M269.942 151.46c.268.983.894 1.653 1.386 3.173 1.119 3.262-.313 3.888-.313 3.888s6.262.447 7.38 0c0 0 1.521-1.699 0-5.05l-1.521-3.352s-.939 0-3.712.402c-2.281.313-3.22.939-3.22.939z" fill="#2C5CFF"/><path d="M357.428 84.781s-1.253 3.665-1.387 6.838c-.134 3.173-.134 7.552.805 9.251.94 1.698 10.735 7.418 10.735 7.418s-11.137 2.324-22.14 1.654c-11.003-.67-13.373-5.318-13.373-5.318s8.364-3.263 8.587-4.112c.224-.849 1.834-7.15 1.834-7.15l14.939-8.58z" fill="#F6C1AA"/><path opacity=".28" d="M356.623 100.289c-.671-1.967-.671-5.81-.582-8.67.134-3.173 1.387-6.838 1.387-6.838l-14.894 8.491s-1.611 6.346-1.834 7.151c-.224.849-8.588 4.111-8.588 4.111s.09.179.313.447c8.096-1.34 16.147-2.994 24.198-4.692z" fill="#EB9271"/><path d="M338.017 84.022c.358-2.637.448-12.246.448-12.246l12.836-4.513 11.227 6.256s-2.684 8.491-2.729 11.173c-.044 2.681-.223 6.257-1.923 8.804-1.655 2.547-6.038 6.525-7.067 7.016-3.086 1.431-5.099.447-7.424-.893-.984-.581-2.326-3.486-3.623-6.257-1.342-2.77-2.103-6.704-1.745-9.34z" fill="#FDD2BB"/><path d="M358.144 77.362s.045 3.442.939 5.676c.179.447.045 1.788-.134 3.397.447-.537.939-1.028 1.387-1.52a40.094 40.094 0 002.594-2.994c.492-1.967 1.342-4.603 1.297-6.123-.09-4.603-.09-7.15-8.498-11.262-1.61-.76-4.876-2.905-6.53-2.279-2.505.939-3.221 1.832-5.189 3.486 0 0-2.639-.536-5.948 3.039-1.924 2.1-1.342 5.14-1.253 7.419.224 4.647 1.476 4.38 1.476 4.38.179-2.37-.223-3.353.492-6.928.224-1.207 2.013-1.609 3.265-1.877 1.163-.268 1.566-.715 5.457 3.173 2.326 2.324 3.578 2.145 10.645 2.413z" fill="#5C3000"/><path d="M358.457 84.602c.627-2.324 1.611-4.022 2.684-3.977 1.029.09 2.102 2.011.805 4.2-1.297 2.19-2.147 3.531-2.862 4.38-.716.939-1.029-3.128-.627-4.603z" fill="#FDD2BB"/><path d="M359.083 84.87c.358-1.25.94-2.815 1.879-2.726.939.09 1.073 1.118-.224 2.905-1.297 1.743-1.565 2.682-1.565 2.682s-.269-2.145-.09-2.86z" fill="#EB9271"/><path d="M347.856 131.84c-1.387 8.134-2.013 28.111-5.457 26.591-1.878-.849-7.693-.804-12.613-.625-4.025.178-7.38.447-7.38.447s-.223-9.028-.134-18.234c.045-4.425.134-8.849.403-12.38.089-1.162.134-2.279.179-3.351.313-10.324-1.387-16.312-.179-17.474 1.341-1.296 16.951-5.229 17.712-7.106l1.162 5.497c2.863 4.558 6.575 3.173 6.575 3.173s1.118 15.329-.268 23.462z" fill="#6D9BFF"/><path d="M344.188 109.897c-.76 4.514-.939 8.044-2.236 16.714-1.297 8.67-.671 12.246-1.253 17.698-.581 5.452-1.655 13.541-1.655 13.541l9.348 1.386s.313-15.642.805-26.636c.492-10.994 2.326-20.781 2.326-20.781l1.253-6.704s-3.444 3.665-7.023 3.307c-3.622-.447-1.565 1.475-1.565 1.475z" fill="#2C5CFF"/><path d="M372.143 116.377c-.358 3.352 1.208 7.508.492 12.201a594.341 594.341 0 01-1.789 10.726c-.939 5.407-.403 19.083-.403 19.083s-21.334-.76-24.957.268c-3.578.983-1.342-18.86-1.566-27.128-.223-8.267 3.131-23.194 3.131-23.194s2.773 0 7.022-3.307c2.639-2.011 3.086-4.693 3.086-4.693.492 1.922 15.029 6.302 16.192 7.821.179.224.313.671.402 1.252.134 1.474-1.297 3.843-1.61 6.971z" fill="#6D9BFF"/><path d="M347.006 108.333c1.297-.358 5.635-2.771 7.245-4.916 1.611-2.145 2.058-4.558 2.058-4.558s1.521 2.458 1.699 4.022c.179 1.564-3.488 9.161-4.159 11.262 0 0-1.163-.224-3.31-2.056-2.147-1.832-3.533-3.754-3.533-3.754zm-6.083-8.849s-.715 1.073.895 3.709c1.61 2.637 5.143 5.185 5.143 5.185l-5.725 5.541s-1.341-3.307-2.147-6.167c-.805-2.86-.67-5.899-.268-6.793.447-.849 2.102-1.475 2.102-1.475zm7.782 21.139c-.045.849-.76 1.43-1.61 1.385-.85-.044-1.431-.759-1.387-1.609.045-.849.761-1.43 1.611-1.385.849.045 1.476.76 1.386 1.609zm-1.162 16.089c-.045.849-.761 1.43-1.61 1.385-.85-.045-1.432-.76-1.387-1.609.045-.849.76-1.43 1.61-1.385.85.045 1.476.76 1.387 1.609zm-1.164 16.044c-.044.849-.76 1.43-1.61 1.385-.85-.045-1.431-.76-1.386-1.609.044-.849.76-1.43 1.61-1.385.85.089 1.476.804 1.386 1.609zm8.678-26.189c3.712.312 7.782.759 9.347.581v2.368s-3.712-.402-6.977-.402h-4.652l.403-2.547s-.045-.135 1.879 0z" fill="#2C5CFF"/><path d="M325.895 156.062H305.41v2.369h20.485v-2.369z" fill="#E9EBEE"/><path d="M352.239 156.062H325.85v2.369h26.389v-2.369z" fill="#E9EBEE"/><path d="M327.282 155.034v1.028h3.667v-1.028h-3.667zm-4.608 0v1.028h3.668v-1.028h-3.668zm-4.607 0v1.028h3.668v-1.028h-3.668zm-4.607 0v1.028h3.668v-1.028h-3.668zm33.814 0h-1.297v1.028h3.668v-1.028h-2.371zm-5.904 0v1.028h3.668v-1.028h-3.668zm-4.607 0v1.028h3.668v-1.028h-3.668zm-4.607 0v1.028h3.668v-1.028h-3.668zm-23.303 0v1.028h3.668v-1.028h-3.668z" fill="#D5D5D7"/><path d="M312.029 91.44h-72.323c-1.163 0-2.058.938-1.924 2.145l5.055 48.936c.134 1.162 1.162 2.145 2.37 2.145h72.323c1.163 0 2.058-.938 1.924-2.145L314.4 93.585c-.135-1.207-1.208-2.145-2.371-2.145z" fill="#FAFCFF"/><path d="M312.029 91.44h-72.323c-1.163 0-2.058.938-1.924 2.145l5.055 48.936c.134 1.162 1.162 2.145 2.37 2.145h72.323c1.163 0 2.058-.938 1.924-2.145L314.4 93.585c-.135-1.207-1.208-2.145-2.371-2.145z" fill="#6B6B6B"/><path d="M310.688 91.44h-72.323c-1.163 0-2.058.939-1.968 2.145l4.338 48.937c.09 1.161 1.163 2.145 2.326 2.145h72.323c1.163 0 2.058-.939 1.968-2.145l-4.338-48.937c-.09-1.206-1.163-2.145-2.326-2.145z" fill="#D5D5D7"/><path d="M298.522 140.689c-.447 0-.894-.357-.939-.849l-.358-4.022a.776.776 0 01.761-.849c.447 0 .894.357.939.849l.358 4.022c.045.492-.269.849-.761.849zm2.684 0c-.448 0-.895-.358-.94-.85l-.358-4.022a.777.777 0 01.761-.849c.447 0 .894.358.939.849l.358 4.022c.045.492-.268.85-.76.85zm2.683 0c-.447 0-.894-.358-.939-.85l-.358-4.022a.776.776 0 01.761-.849c.447 0 .894.358.939.849l.358 4.022a.754.754 0 01-.761.85zm2.684 0c-.447 0-.894-.358-.939-.85l-.358-4.022a.776.776 0 01.761-.849c.447 0 .894.358.939.849l.358 4.022a.755.755 0 01-.761.85zm2.684 0c-.448 0-.895-.358-.94-.85l-.358-4.022a.777.777 0 01.761-.849c.447 0 .894.358.939.849l.358 4.022a.754.754 0 01-.76.85z" fill="#E9EBEE"/><path d="M293.736 156.733h-10.064v1.877l10.064.313v-2.19z" fill="#6B6B6B"/><path d="M279.916 148.242l2.549-30.167h-11.047l-4.786 29.854c-.671 3.441.402 7.106 2.549 8.759l2.46 1.922h13.642l-.224-1.877c-3.98-1.52-5.591-5.184-5.143-8.491z" fill="#6B6B6B"/><path d="M278.305 148.242l2.55-30.166h-11.048l-4.786 29.853c-.671 3.441.403 7.106 2.55 8.76l2.46 1.921h13.641l-2.728-2.1c-2.013-1.564-3.086-4.961-2.639-8.268z" fill="#A5A5A5"/><path d="M278.529 152.487h-13.463c.403 1.743 1.297 3.307 2.46 4.201l2.46 1.922h13.642l-2.729-2.101c-1.073-.893-1.923-2.324-2.37-4.022z" fill="#6B6B6B"/><path d="M390.884 151.862s-4.16-2.279-7.515-3.799c-3.354-1.519-8.229 1.207-8.229 1.207s-.582-1.564-1.432-3.531c-.849-2.055-1.923-4.558-2.907-6.39-.537-1.073-1.029-1.877-1.431-2.28-1.7-1.787-1.521-3.888-2.013-4.916 0-.044-.045-.089-.045-.134-.357-1.34.582-6.793 1.611-11.753 1.073-5.14 2.504-13.139 2.504-13.139.492.446 2.192.849 3.086 1.921 0 0 6.083 9.207 8.633 15.553 4.651 11.53 5.412 13.898 6.172 18.144.85 4.201 1.566 9.117 1.566 9.117z" fill="#6D9BFF"/><path d="M338.777 154.231c3.578-.715 6.217 1.028 8.453 1.162 2.237.134 10.243-.715 10.243-.715l-1.789-4.112s-9.125-.179-12.211.849c-3.086 1.028-4.696 2.816-4.696 2.816z" fill="#FDD2BB"/><path d="M357.517 149.985s-4.741-.849-7.022-.894c-3.846-.089-8.185-.089-9.079.626-.895.715-5.502 5.944-6.128 6.793-.626.849-.313 1.832 1.61 1.162 1.923-.67 5.099-4.335 7.022-5.184 1.923-.849 5.502-.134 5.502-.134l7.111-.671.984-1.698z" fill="#FDD2BB"/><path opacity=".28" d="M351.927 149.182c-5.681 1.385-11.227 3.262-16.013 6.525-.313.357-.536.67-.671.804-.626.849-.313 1.833 1.611 1.162 1.923-.67 5.098-4.335 7.022-5.184 1.923-.849 5.501-.134 5.501-.134l7.112-.67.984-1.699c.044 0-3.131-.536-5.546-.804z" fill="#EB9271"/><path d="M352.777 150.164s-6.62-.447-8.32-.626c-1.744-.178-3.086 1.252-4.025 2.95-.984 1.698-2.952 4.648-2.505 5.497.403.894 1.521.804 2.415-.179.94-.983 2.147-3.441 3.444-3.933 1.298-.491 5.681-1.519 5.681-1.519l3.31-2.19z" fill="#FDD2BB"/><path opacity=".28" d="M344.547 151.236c-2.728 1.162-5.143 7.509-4.204 6.57.939-.983 2.147-3.441 3.444-3.933 1.297-.491 5.68-1.519 5.68-1.519l3.355-2.235s-1.655-.134-3.534-.268c-1.655.313-3.22.76-4.741 1.385z" fill="#EB9271"/><path d="M364.405 156.063s-3.399-.223-4.607.939c-1.207 1.162-2.415 1.698-3.533 1.564-1.163-.134-3.22-1.162-4.16-1.743-.939-.581-3.98 1.385-4.92 1.832-.983.492-1.833-.357-1.386-1.385.492-1.028 1.476-2.011 2.281-2.414.805-.402 4.249-1.251 4.249-1.251h-.089c-.403-.045-1.968-.223-2.997-.179-1.163.09-2.371.805-3.489 2.235-1.073 1.43-2.236 3.039-2.862 3.307-.179.089-.403.045-.582-.179-.402-.402-.581-1.296-.044-2.458.805-1.698 2.862-4.379 3.936-5.72 1.073-1.341 2.683-1.475 4.249-1.52 1.52-.044 5.098-.044 5.098-.044s3.936-.09 6.128-.09c1.342.045 2.728 7.106 2.728 7.106z" fill="#FDD2BB"/><path opacity=".28" d="M361.722 149.002h-1.61c.044 2.771-.134 5.542-.582 8.268.09-.09.179-.179.313-.268 1.208-1.162 4.607-.939 4.607-.939s-1.431-7.061-2.728-7.061zm-9.393 4.558h-.089c-.403-.045-1.968-.223-2.997-.179-1.163.09-2.37.805-3.488 2.235-1.074 1.43-2.237 3.039-2.863 3.307-.179.089-.402.045-.581-.179 1.163-1.43 2.37-3.62 2.952-4.603.894-1.519 3.488-1.787 4.159-1.787.626 0 2.907 1.206 2.907 1.206z" fill="#EB9271"/><path d="M377.957 142.924s-3.354 2.592-8.006 4.022c-5.099 1.564-8.23 2.056-8.23 2.056s.358 4.201.492 8.58c0 0 11.182 1.743 18.473.358 7.29-1.43 9.124-1.162 10.332-4.335 1.207-3.173-.805-9.385-1.745-12.111-.939-2.771-6.798-.626-11.316 1.43z" fill="#6D9BFF"/><path d="M360.38 148.957c1.208 1.609 1.163 4.022 1.476 7.374.224 2.324-.581 2.279-.581 2.279l6.127-.178s.671-3.531-.268-6.793l-.984-3.263-5.77.581z" fill="#2C5CFF"/><path d="M397.369 145.068c.134-.894.85-1.698 1.744-1.966.671-.179 1.432-.134 1.924-.626.536-.536.313-1.43.313-2.19 0-1.519.984-2.949 2.415-3.486.626-.223 1.342-.268 1.834-.715.492-.446.671-1.162.849-1.832.492-1.653 1.521-3.084 2.863-4.156.581-.447 1.297-.805 1.968-.626.537.179.939.671 1.073 1.207.135.536.045 1.117-.134 1.653-.715 2.011-2.773 3.442-3.22 5.542-.224 1.028 0 2.145-.224 3.173a3.937 3.937 0 01-2.236 2.726c-.537.224-1.208.358-1.566.849-.402.537-.268 1.341-.357 2.011-.179 1.475-1.611 2.592-3.086 2.682-1.476.089-2.908-.805-3.713-2.011-.089.044-.581-1.296-.447-2.235z" fill="#4BBD6D"/><path d="M404.212 143.638c.536-.67.626-1.609.268-2.368-.268-.537-.805-1.073-.76-1.654.044-.67.76-1.072 1.297-1.564 1.028-.894 1.386-2.503.849-3.754-1.118-2.682 1.298-5.005 1.074-7.866-.045-.625-.224-1.34-.805-1.698-.447-.268-1.029-.223-1.476.045-.447.223-.761.67-1.029 1.117-.76 1.43-.76 2.95-1.252 4.424-.492 1.386-1.655 2.101-2.46 3.263-.626.894-.805 2.145-.447 3.173.178.536.492 1.028.357 1.564-.134.626-.715.983-1.118 1.475-.85 1.028-.76 2.681.09 3.709.849 1.028 2.325 1.475 3.623 1.252.044 0 1.252-.492 1.789-1.118z" fill="#44AB63"/><path d="M403.496 145.292c-.089-.76-.671-1.475-1.431-1.698-.537-.179-1.208-.134-1.61-.581-.403-.492-.224-1.207-.179-1.833.044-1.251-.761-2.502-1.968-2.949-.537-.179-1.118-.268-1.521-.626-.403-.402-.537-.983-.671-1.519-.402-1.386-1.208-2.637-2.326-3.531-.447-.357-1.073-.715-1.655-.536a1.327 1.327 0 00-.894.983c-.134.447-.045.938.089 1.385.582 1.699 2.281 2.95 2.594 4.693.179.894-.044 1.787.135 2.681.179.984.894 1.877 1.833 2.324.448.224.984.358 1.298.76.313.492.178 1.117.268 1.698.134 1.207 1.297 2.19 2.505 2.279 1.252.09 2.46-.581 3.175-1.608-.044-.045.448-1.162.358-1.922z" fill="#44AB63"/><path d="M395.803 141.359c-.179-.626-.671-1.117-.894-1.698-.448-1.028-.179-2.235.268-3.307.358-.76.805-1.565.76-2.369-.045-.536-.268-1.028-.447-1.519-.358-1.207-.313-2.503-.224-3.754.045-.76.09-1.565.403-2.235.313-.715.894-1.341 1.655-1.475 1.028-.179 2.057.626 2.415 1.609.403.983.313 2.056.179 3.084s-.268 2.1.045 3.128c.313 1.162 1.163 2.056 1.655 3.173.581 1.341.447 2.994-.269 4.246-.358.625-.894 1.206-1.118 1.921-.447 1.475.492 3.039.671 4.559.134.983-.09 2.056-.76 2.771-1.476 1.698-3.936.536-4.473-1.386-.269-.983-.582-2.234-.447-3.262.134-1.162.939-2.279.581-3.486z" fill="#4BBD6D"/><path d="M406.045 158.61h-9.84l-3.265-15.821h16.37l-3.265 15.821z" fill="#D5D5D7"/><path d="M415.282 158.899H225.641v6.123h189.641v-6.123z" stroke="#D4DBF1" stroke-width=".283" stroke-miterlimit="10"/></g><circle cx="175" cy="221" r="30" fill="#CBE1FD"/><mask id="a" maskUnits="userSpaceOnUse" x="152" y="200" width="64" height="64"><path d="M215.399 232.182c0 5.993-1.676 11.6-4.577 16.369a31.383 31.383 0 01-2.675 3.737 31.243 31.243 0 01-1.966 2.159 30.639 30.639 0 01-5.544 4.415 31.23 31.23 0 01-14.73 4.737c-.676.032-1.353.064-2.03.064a31.425 31.425 0 01-17.373-5.22 32.498 32.498 0 01-4.222-3.319 30.974 30.974 0 01-5.995-7.701c-2.514-4.511-3.932-9.731-3.932-15.274 0-8.7 3.513-16.594 9.25-22.297 5.705-5.704 13.57-9.216 22.304-9.216a31.45 31.45 0 0122.304 9.216c5.672 5.767 9.186 13.63 9.186 22.33z" fill="#DFEBFD"/></mask><g mask="url(#a)"><path d="M169.793 253.111s-1.687 1.716-3.374 3.644a44.506 44.506 0 00-2.018 2.379c-2.019 2.53-3.917 3.253-6.146 5.723-1.386 1.536-3.193 2.71-6.567 3.253-3.374.542-15.725 1.415-15.725 1.415s-.301-1.626-.09-2.168c.06-.151-.091-.452-.302-.874-.542-1.084-1.446-2.741.302-2.951 2.379-.271 13.977-3.072 14.52-3.916.542-.843 3.675-4.728 5.362-8.252 1.687-3.524 4.217-7.831 6.808-12.048 2.259-3.704 2.922-3.885 4.127-4.969l1.416 8.614 1.687 10.15z" fill="#6D9BFF"/><path d="M190.099 219.527s-.844 2.47-.934 4.609c-.091 2.138-.091 5.09.542 6.234.633 1.145 7.23 5 7.23 5s-7.501 1.566-14.912 1.114c-7.41-.452-9.007-3.584-9.007-3.584s5.633-2.199 5.784-2.771c.15-.572 1.235-4.819 1.235-4.819l10.062-5.783z" fill="#F6C1AA"/><path opacity=".28" d="M189.556 229.979c-.452-1.326-.452-3.916-.392-5.843.091-2.139.934-4.609.934-4.609l-10.031 5.723s-1.085 4.277-1.235 4.819c-.151.572-5.784 2.771-5.784 2.771s.06.12.211.301c5.452-.904 10.875-2.018 16.297-3.162z" fill="#EB9271"/><path d="M177.025 219.016c.241-1.777.301-8.253.301-8.253l8.646-3.042 7.561 4.217s-1.807 5.722-1.837 7.529c-.03 1.807-.151 4.217-1.296 5.934-1.114 1.716-4.066 4.397-4.759 4.728-2.079.964-3.435.301-5.001-.602-.663-.392-1.567-2.349-2.44-4.217-.904-1.867-1.416-4.517-1.175-6.294z" fill="#FDD2BB"/><path d="M190.581 214.528s.03 2.319.632 3.825c.121.301.03 1.205-.09 2.289.301-.361.633-.693.934-1.024a26.898 26.898 0 001.747-2.018c.331-1.325.904-3.102.874-4.126-.061-3.102-.061-4.819-5.724-7.59-1.084-.512-3.284-1.958-4.398-1.536-1.687.633-2.169 1.235-3.495 2.349 0 0-1.777-.361-4.006 2.048-1.296 1.416-.904 3.464-.844 5 .151 3.132.994 2.952.994 2.952.121-1.597.734-1.531 1.216-3.94.15-.814.369-1.032 1.212-1.213.783-.18 1.157-1.263 3.778 1.358 1.567 1.566 2.41 1.445 7.17 1.626z" fill="#5C3000"/><path d="M190.792 219.408c.422-1.566 1.085-2.711 1.808-2.681.693.061 1.415 1.356.542 2.831-.874 1.476-1.446 2.38-1.928 2.952-.482.632-.693-2.108-.422-3.102z" fill="#FDD2BB"/><path d="M191.213 219.588c.241-.843.632-1.897 1.265-1.837.632.06.723.753-.151 1.958-.873 1.174-1.054 1.807-1.054 1.807s-.181-1.446-.06-1.928z" fill="#EB9271"/><path d="M183.652 251.243c-.934 5.481-1.356 18.944-3.675 17.92-1.266-.572-5.182-.542-8.496-.422-2.711.121-4.97.302-4.97.302s-.151-6.084-.091-12.289c.031-2.982.091-5.963.272-8.343.06-.783.09-1.536.12-2.258.211-6.958-.934-10.994-.12-11.777.903-.873 11.417-3.524 11.929-4.789l.783 3.705c1.928 3.072 4.428 2.138 4.428 2.138s.754 10.331-.18 15.813z" fill="#6D9BFF"/><path d="M181.181 236.454c-.512 3.042-.632 5.422-1.506 11.265-.874 5.843-.452 8.252-.844 11.927-.391 3.674-1.114 9.125-1.114 9.125l6.296.934s.211-10.541.542-17.95c.331-7.41 1.567-14.006 1.567-14.006l.843-4.517s-2.32 2.469-4.73 2.228c-2.44-.301-1.054.994-1.054.994z" fill="#2C5CFF"/><path d="M200.009 240.821c-.241 2.259.813 5.06.331 8.223a396.638 396.638 0 01-1.205 7.228c-.632 3.644-.271 12.861-.271 12.861s-14.369-.512-16.809.18c-2.41.663-.904-12.71-1.055-18.282-.15-5.571 2.109-15.631 2.109-15.631s1.868 0 4.73-2.229c1.777-1.355 2.078-3.162 2.078-3.162.332 1.295 10.122 4.246 10.905 5.271.121.15.211.451.272.843.09.994-.874 2.59-1.085 4.698z" fill="#6D9BFF"/><path d="M183.079 235.4c.874-.241 3.796-1.867 4.88-3.313 1.085-1.446 1.386-3.072 1.386-3.072s1.024 1.656 1.145 2.711c.12 1.054-2.35 6.174-2.802 7.589 0 0-.783-.15-2.229-1.385-1.446-1.235-2.38-2.53-2.38-2.53zm-4.096-5.963s-.482.722.603 2.499c1.084 1.777 3.464 3.494 3.464 3.494l-3.856 3.735s-.904-2.229-1.446-4.156c-.542-1.928-.452-3.976-.181-4.578.301-.573 1.416-.994 1.416-.994zm5.24 14.246c-.03.572-.512.964-1.084.934-.572-.031-.964-.512-.934-1.085.03-.572.512-.964 1.085-.933.572.03.994.512.933 1.084zm-.782 10.843c-.03.572-.512.964-1.085.934-.572-.031-.964-.513-.934-1.085.03-.572.512-.964 1.085-.933.572.03.994.512.934 1.084zm5.061-6.837c2.5.21 5.241.512 6.296.391v1.596s-2.501-.271-4.7-.271h-3.133l.271-1.716s-.03-.091 1.266 0z" fill="#2C5CFF"/><path d="M212.631 264.736s-2.802-1.536-5.061-2.56-5.543.813-5.543.813-.392-1.054-.964-2.379c-.572-1.386-1.295-3.072-1.958-4.307-.362-.723-.693-1.265-.964-1.536-1.145-1.205-1.024-2.621-1.356-3.313 0-.03-.03-.061-.03-.091-.241-.903.392-4.578 1.085-7.921.723-3.463 1.687-8.855 1.687-8.855.331.302 1.476.573 2.078 1.295 0 0 4.097 6.205 5.814 10.482 3.133 7.77 3.645 9.367 4.158 12.228.572 2.831 1.054 6.144 1.054 6.144z" fill="#6D9BFF"/><path d="M203.926 258.712s-2.26 1.747-5.393 2.711c-3.434 1.054-5.543 1.385-5.543 1.385s.241 2.832.332 5.783c0 0 7.531 1.175 12.441.241 4.911-.964 6.146-.783 6.959-2.921.813-2.139-.542-6.325-1.175-8.162-.632-1.868-4.579-.422-7.621.963z" fill="#6D9BFF"/><path d="M192.086 262.779c.813 1.084.783 2.71.994 4.969.151 1.566-.392 1.536-.392 1.536l4.127-.12s.452-2.38-.18-4.578l-.663-2.199-3.886.392z" fill="#2C5CFF"/></g><circle cx="233" cy="354" r="24" fill="#fff"/><mask id="b" maskUnits="userSpaceOnUse" x="219" y="346" width="52" height="52"><path d="M270.036 371.885a25.13 25.13 0 01-3.661 13.095 25.197 25.197 0 01-2.14 2.991 25.26 25.26 0 01-1.573 1.727 24.52 24.52 0 01-4.435 3.531 24.977 24.977 0 01-11.784 3.79c-.541.025-1.083.051-1.624.051a25.136 25.136 0 01-13.898-4.176 25.89 25.89 0 01-3.378-2.655 24.799 24.799 0 01-4.796-6.161c-2.011-3.609-3.146-7.785-3.146-12.219 0-6.96 2.811-13.275 7.401-17.838a25.114 25.114 0 0117.843-7.372 25.161 25.161 0 0117.843 7.372c4.538 4.614 7.348 10.904 7.348 17.864z" fill="#DFEBFD"/></mask><g mask="url(#b)"><path d="M233.638 388.547s-1.35 1.373-2.699 2.915a35.53 35.53 0 00-1.615 1.903c-1.615 2.024-3.133 2.603-4.916 4.578-1.109 1.229-2.555 2.169-5.254 2.603-2.699.433-12.58 1.132-12.58 1.132s-.241-1.301-.072-1.735c.048-.12-.073-.361-.241-.698-.434-.868-1.157-2.193.241-2.362 1.904-.217 11.182-2.457 11.616-3.132.434-.675 2.94-3.783 4.29-6.602 1.349-2.819 3.373-6.265 5.446-9.638 1.808-2.964 2.338-3.108 3.302-3.975l1.132 6.891 1.35 8.12z" fill="#6D9BFF"/><path d="M249.883 361.68s-.675 1.976-.747 3.687c-.073 1.711-.073 4.072.433 4.987.507.916 5.784 4 5.784 4s-6 1.253-11.929.892c-5.929-.362-7.206-2.868-7.206-2.868s4.507-1.759 4.627-2.216c.121-.458.988-3.856.988-3.856l8.05-4.626z" fill="#F6C1AA"/><path opacity=".28" d="M249.449 370.041c-.362-1.06-.362-3.132-.313-4.674.072-1.711.747-3.687.747-3.687l-8.026 4.578s-.867 3.422-.988 3.855c-.12.458-4.627 2.217-4.627 2.217s.048.097.169.241c4.362-.723 8.7-1.614 13.038-2.53z" fill="#EB9271"/><path d="M239.423 361.271c.193-1.421.241-6.602.241-6.602l6.917-2.433 6.049 3.373s-1.446 4.578-1.47 6.024c-.024 1.445-.12 3.373-1.036 4.746-.892 1.374-3.254 3.518-3.808 3.783-1.663.771-2.747.241-4.001-.482-.53-.313-1.253-1.879-1.952-3.373-.723-1.494-1.132-3.614-.94-5.036z" fill="#FDD2BB"/><path d="M250.268 357.681s.025 1.855.507 3.06c.096.241.024.964-.073 1.831.241-.289.506-.554.747-.819.506-.53.964-1.06 1.398-1.614.265-1.061.723-2.482.699-3.301-.048-2.482-.048-3.856-4.579-6.072-.867-.41-2.627-1.566-3.518-1.229-1.35.506-1.736.988-2.796 1.879 0 0-1.422-.289-3.205 1.639-1.037 1.132-.723 2.771-.675 3.999.12 2.506.795 2.362.795 2.362.097-1.277.587-1.225.973-3.152.12-.651.295-.825.969-.97.627-.145.926-1.01 3.023 1.086 1.253 1.253 1.928 1.156 5.735 1.301z" fill="#5C3000"/><path d="M250.437 361.585c.338-1.253.868-2.169 1.446-2.145.555.048 1.133 1.084.434 2.265-.699 1.181-1.157 1.904-1.542 2.361-.386.506-.555-1.686-.338-2.481z" fill="#FDD2BB"/><path d="M250.774 361.729c.193-.675.506-1.518 1.012-1.47.507.048.579.603-.12 1.566-.699.94-.844 1.446-.844 1.446s-.144-1.156-.048-1.542z" fill="#EB9271"/><path d="M244.725 387.052c-.747 4.385-1.085 15.156-2.94 14.337-1.013-.458-4.146-.434-6.797-.338-2.169.097-3.976.241-3.976.241s-.121-4.867-.072-9.831c.024-2.385.072-4.77.217-6.674.048-.626.072-1.229.096-1.807.169-5.566-.747-8.794-.096-9.421.723-.699 9.133-2.819 9.543-3.831l.627 2.964c1.542 2.457 3.542 1.71 3.542 1.71s.603 8.265-.144 12.65z" fill="#6D9BFF"/><path d="M242.748 375.222c-.409 2.433-.506 4.337-1.205 9.011-.699 4.675-.361 6.602-.675 9.542-.313 2.939-.891 7.301-.891 7.301l5.037.746s.168-8.433.433-14.36a90.746 90.746 0 011.254-11.204l.674-3.614s-1.855 1.976-3.783 1.783c-1.952-.241-.844.795-.844.795z" fill="#2C5CFF"/><path d="M257.811 378.715c-.193 1.808.65 4.048.265 6.578a323.522 323.522 0 01-.964 5.783c-.506 2.915-.217 10.288-.217 10.288s-11.496-.409-13.448.145c-1.928.53-.723-10.168-.843-14.625-.121-4.458 1.687-12.506 1.687-12.506s1.494 0 3.783-1.783c1.422-1.084 1.663-2.53 1.663-2.53.265 1.037 8.098 3.398 8.724 4.217.097.12.169.361.217.675.072.795-.699 2.072-.867 3.758z" fill="#6D9BFF"/><path d="M244.267 374.378c.699-.192 3.036-1.494 3.904-2.65.867-1.157 1.108-2.458 1.108-2.458s.82 1.325.916 2.169c.097.843-1.88 4.939-2.241 6.072 0 0-.627-.121-1.783-1.109a12.984 12.984 0 01-1.904-2.024zm-3.277-4.77s-.386.578.482 2c.867 1.421 2.771 2.795 2.771 2.795l-3.085 2.987s-.723-1.783-1.156-3.325c-.434-1.542-.362-3.18-.145-3.662.241-.458 1.133-.795 1.133-.795zm4.192 11.396c-.024.458-.409.771-.867.747-.458-.024-.771-.409-.747-.867.024-.458.409-.771.867-.747a.78.78 0 01.747.867zm-.626 8.675c-.024.457-.41.771-.868.747-.458-.025-.771-.41-.747-.868.024-.458.41-.771.868-.747.457.024.795.41.747.868zm4.048-5.47c2.001.169 4.194.41 5.037.313v1.277s-2-.216-3.759-.216h-2.507l.217-1.374s-.024-.072 1.012 0z" fill="#2C5CFF"/><path d="M267.909 397.847s-2.241-1.229-4.049-2.048c-1.807-.819-4.434.65-4.434.65s-.313-.843-.771-1.903c-.458-1.108-1.036-2.458-1.567-3.446-.289-.578-.554-1.012-.771-1.229-.916-.963-.819-2.096-1.084-2.65 0-.024-.024-.048-.024-.072-.193-.723.313-3.663.867-6.337.579-2.771 1.35-7.084 1.35-7.084.265.241 1.181.458 1.663 1.036 0 0 3.277 4.964 4.651 8.385 2.506 6.216 2.916 7.494 3.326 9.783.457 2.264.843 4.915.843 4.915z" fill="#6D9BFF"/><path d="M260.945 393.028s-1.808 1.397-4.314 2.168c-2.748.844-4.435 1.109-4.435 1.109s.193 2.265.266 4.626c0 0 6.024.94 9.953.193 3.928-.771 4.916-.627 5.567-2.338.65-1.71-.434-5.059-.94-6.529-.506-1.494-3.663-.338-6.097.771z" fill="#6D9BFF"/><path d="M251.473 396.281c.651.867.626 2.168.795 3.975.121 1.253-.313 1.229-.313 1.229l3.302-.096s.361-1.904-.145-3.663l-.53-1.759-3.109.314z" fill="#2C5CFF"/></g><path stroke="#000" stroke-width="1.115" d="M607.186 451.328H162.335"/><path d="M538 170c43 30.5-6 95.5-31 98" stroke="#685ED6" stroke-linecap="round" stroke-linejoin="round" stroke-dasharray="5 7"/><path d="M128 143.5C68.5 210.833 34.6 329.8 75 405c50.5 94 148 102 311 114.5" stroke="#18E1F7" stroke-linecap="round" stroke-linejoin="round" stroke-dasharray="5 7"/><path d="M496.5 142.5c-13.667-6.167-31.8-15.1-35-33.5-3.2-18.4 31.5-50.5 6.5-63" stroke="#685ED6" stroke-linecap="round" stroke-linejoin="round" stroke-dasharray="5 7"/><path d="M36.34 68.438l55.697 9.253L55.5 51.28l-2.056 8.2-13.626 2.183-3.478 6.776z" fill="#685ED6"/><path d="M92.037 77.69L46.058 52.435.559 49.129l91.478 28.562zM55.5 51.279L92.037 77.69 64.16 37.045 55.5 51.279z" fill="#18E1F7"/><path d="M654.272 42.4L623.74 55.233l17.268-20.03 2.286 4.402 8.073-.601 2.905 3.396z" fill="#685ED6"/><path d="M623.74 55.232l22.814-20.65 25.519-8.056-48.333 28.706z" fill="#18E1F7"/><path d="M641.008 35.204l-17.267 20.028 10.394-26.979 6.873 6.95z" fill="#18E1F7"/><path d="M350.942 93.915s-3.678.626-7.355-.425c0 0 .525 2.101 4.203 2.452 2.627-.351 3.152-2.027 3.152-2.027z" fill="#fff"/><path d="M447.819 562.688l42.14-17.552-35.322-1.091 1.669 5.941-8.631 7.049.144 5.653z" fill="#685ED6"/><path d="M489.959 545.135l-41.439 3.574-32.819 16.975 74.258-20.549zm-35.321-1.09l35.322 1.09-34.686-13.529-.636 12.439z" fill="#18E1F7"/><path d="M491.5 520.5c67.5 16.5 182 29 182-53 0-87.07-34.5-84.5-56.5-214.5" stroke="#18E1F7" stroke-linecap="round" stroke-linejoin="round" stroke-dasharray="5 7"/><defs><clipPath id="clip0"><path fill="#fff" transform="translate(230.537 62.144)" d="M0 0h190.089v113.827H0z"/></clipPath></defs></svg>